- 
http://www.Speed.Cd
 
http://www.Speed.Cd       the fast  and The Hottest Private Tracker on the net

Please Seed back to make the speed Faster!!
 ............ NFO .............
-General
Unique ID                                : 179985258073762766121556077269817306551 (0x8767E659C4A1DAD4A015BABCCA252DB7)
Complete name                            : D:iTunesTV ShowsNikitaNikita.S03E01.720p.WEB-DL.DD5.1.H.264-KiNGSNikita.S03E01.720p.WEB-DL.DD5.1.H.264-KiNGS.mkv
Format                                   : Matroska
Format version                           : Version 2
File size                                : 1.27 GiB
Duration                                 : 42mn 15s
Overall bit rate                         : 4 304 Kbps
Encoded date                             : UTC 2012-10-20 23:17:43
Writing application                      : mkvmerge v5.8.0 ('No Sleep / Pillow') built on Sep  2 2012 15:37:04
Writing library                          : libebml v1.2.3 + libmatroska v1.3.0

Video
ID                                       : 1
Format                                   : AVC
Format/Info                              : Advanced Video Codec
Format profile                           : High@L3.1
Format settings, CABAC                   : No
Format settings, ReFrames                : 2 frames
Codec ID                                 : V_MPEG4/ISO/AVC
Duration                                 : 42mn 15s
Bit rate                                 : 3 835 Kbps
Width                                    : 1 280 pixels
Height                                   : 720 pixels
Display aspect ratio                     : 16:9
Frame rate mode                          : Constant
Frame rate                               : 23.976 fps
Color space                              : YUV
Chroma subsampling                       : 4:2:0
Bit depth                                : 8 bits
Scan type                                : Progressive
Bits/(Pixel*Frame)                       : 0.174
Stream size                              : 1.13 GiB (89%)
Language                                 : English
Default                                  : Yes
Forced                                   : No
Color primaries                          : BT.709
Transfer characteristics                 : BT.709
Matrix coefficients                      : BT.709

Audio
ID                                       : 2
Format                                   : AC-3
Format/Info                              : Audio Coding 3
Mode extension                           : CM (complete main)
Format settings, Endianness              : Big
Codec ID                                 : A_AC3
Duration                                 : 42mn 15s
Bit rate mode                            : Constant
Bit rate                                 : 384 Kbps
Channel(s)                               : 6 channels
Channel positions                        : Front: L C R, Side: L R, LFE
Sampling rate                            : 48.0 KHz
Bit depth                                : 16 bits
Compression mode                         : Lossy
Stream size                              : 116 MiB (9%)
Language                                 : English
Default                                  : Yes
Forced                                   : No